# xmcd
#
# Track frame offsets:
#	150
#	20143
#	36616
#	60595
#	81779
#	99531
#	122138
#	139616
#	163688
#	189056
#	208383
#	230628
#	254731
#	269724
#	285373
#
# Disc length: 3958 seconds
#
# Revision: 0
# Processed by: cddbd v1.5.2PL0 Copyright (c) Steve Scherf et al.
# Submitted via: audiograbber 1.83.01
#
DISCID=e50f740f
DTITLE=Keith and Kristyn Getty - Hymns for the Christian Life
DYEAR=2012
DGENRE=Christian 
TTITLE0=Christ is risen he is risen indeed
TTITLE1=Oh how good it is
TTITLE2=A mothers's Prayer
TTITLE3=Simple Living
TTITLE4=Before you I kneel
TTITLE5=The village Reel
TTITLE6=The Perfect wisdom of our God
TTITLE7=Kyrie Eleison
TTITLE8=Gethsemane
TTITLE9=In Christ alone
TTITLE10=Nothing but the Blood
TTITLE11=Holy Spirit
TTITLE12=Oh shout for Joy
TTITLE13=My heart is filled with Thankfulness
TTITLE14=Echoes of Heaven
EXTD=
EXTT0=
EXTT1=
EXTT2=
EXTT3=
EXTT4=
EXTT5=
EXTT6=
EXTT7=
EXTT8=
EXTT9=
EXTT10=
EXTT11=
EXTT12=
EXTT13=
EXTT14=
PLAYORDER=
